<?xml version="1.0" standalone="no"?><!DOCTYPE svg PUBLIC "-//W3C//DTD SVG 1.1//EN" "http://www.w3.org/Graphics/SVG/1.1/DTD/svg11.dtd"><svg t="1589100761373" class="icon" viewBox="0 0 1024 1024" version="1.1" xmlns="http://www.w3.org/2000/svg" p-id="4784" xmlns:xlink="http://www.w3.org/1999/xlink" width="200" height="200"><defs><style type="text/css"></style></defs><path d="M289.8944 551.6288c-6.3488-6.144-7.4752-15.7696-1.7408-22.7328l13.2096-16.0768c5.4272-6.5536 15.4624-8.2944 22.6304-3.6864l113.9712 73.728c6.0416 3.8912 16.384 3.3792 22.016-1.024L761.1392 345.088c6.7584-5.3248 17.408-4.9152 23.3472 0.9216l7.3728 7.168c6.4512 6.2464 5.9392 16.1792-0.8192 22.7328L467.7632 688.7424c-10.0352 9.728-26.624 9.3184-36.9664-0.7168L289.8944 551.6288z" fill="#323233" p-id="4785"></path><path d="M512 910.2336c219.9552 0 398.2336-178.2784 398.2336-398.2336S731.9552 113.7664 512 113.7664 113.7664 292.0448 113.7664 512 292.0448 910.2336 512 910.2336z m0 56.832c-251.392 0-455.0656-203.776-455.0656-455.0656S260.608 56.9344 512 56.9344s455.0656 203.776 455.0656 455.0656S763.392 967.0656 512 967.0656z" fill="#323233" p-id="4786"></path></svg>