<?xml version="1.0" standalone="no"?><!DOCTYPE svg PUBLIC "-//W3C//DTD SVG 1.1//EN" "http://www.w3.org/Graphics/SVG/1.1/DTD/svg11.dtd"><svg t="1589100780989" class="icon" viewBox="0 0 1024 1024" version="1.1" xmlns="http://www.w3.org/2000/svg" p-id="5544" xmlns:xlink="http://www.w3.org/1999/xlink" width="200" height="200"><defs><style type="text/css"></style></defs><path d="M509.866667 32C245.333333 32 32 247.466667 32 512s213.333333 480 477.866667 480S987.733333 776.533333 987.733333 512 774.4 32 509.866667 32z m0 896C281.6 928 96 742.4 96 512S281.6 96 509.866667 96 923.733333 281.6 923.733333 512s-185.6 416-413.866666 416z" fill="#212121" p-id="5545"></path><path d="M704 512h-192v-192c0-17.066667-14.933333-32-32-32S448 302.933333 448 320v224c0 17.066667 14.933333 32 32 32H704c17.066667 0 32-14.933333 32-32S721.066667 512 704 512z" fill="#212121" p-id="5546"></path></svg>