<?xml version="1.0" standalone="no"?><!DOCTYPE svg PUBLIC "-//W3C//DTD SVG 1.1//EN" "http://www.w3.org/Graphics/SVG/1.1/DTD/svg11.dtd"><svg class="icon" width="200px" height="200.00px" viewBox="0 0 1024 1024" version="1.1" xmlns="http://www.w3.org/2000/svg"><path fill="#1296db" d="M897.045333 400.917333A106.346667 106.346667 0 0 0 815.253333 362.666667h-125.589333c19.285333-78.997333 9.749333-158.464-26.24-208.426667A106.944 106.944 0 0 0 576 106.666667c-49.792 0-49.792 46.122667-49.792 79.786666 0 63.850667-0.576 158.976-188.778667 213.162667A106.432 106.432 0 0 0 128 426.666667v341.333333a106.346667 106.346667 0 0 0 191.978667 63.381333A106.133333 106.133333 0 0 0 405.205333 874.666667h355.712a106.496 106.496 0 0 0 104.789334-87.466667l54.378666-298.965333a106.325333 106.325333 0 0 0-23.04-87.317334zM234.666667 832a64.064 64.064 0 0 1-64-64V426.666667a64 64 0 0 1 128 0v341.333333a64.064 64.064 0 0 1-64 64z m643.413333-351.424l-54.378667 298.965333A63.786667 63.786667 0 0 1 760.917333 832H405.205333A63.957333 63.957333 0 0 1 341.333333 768.128V442.773333c226.901333-62.634667 227.541333-188.074667 227.541334-256.32a130.197333 130.197333 0 0 1 2.666666-36.586666A12.266667 12.266667 0 0 1 576 149.333333a63.765333 63.765333 0 0 1 52.842667 29.866667c32 44.416 36.906667 124.010667 12.245333 198.037333A21.376 21.376 0 0 0 661.333333 405.333333h153.92a63.850667 63.850667 0 0 1 62.826667 75.242667z"  /></svg>